<svg xmlns="http://www.w3.org/2000/svg" width="22" height="23" viewBox="0 0 22 23" fill="none">
<g clip-path="url(#clip0_158_7250)">
<path d="M11 0.5C12.0098 0.5 12.9837 0.628906 13.9219 0.886719C14.86 1.14453 15.7373 1.51335 16.5537 1.99316C17.3701 2.47298 18.1113 3.0459 18.7773 3.71191C19.4434 4.37793 20.0163 5.12272 20.4961 5.94629C20.9759 6.76986 21.3447 7.64714 21.6025 8.57812C21.8604 9.50911 21.9928 10.4831 22 11.5C22 12.5098 21.8711 13.4837 21.6133 14.4219C21.3555 15.36 20.9867 16.2373 20.5068 17.0537C20.027 17.8701 19.4541 18.6113 18.7881 19.2773C18.1221 19.9434 17.3773 20.5163 16.5537 20.9961C15.7301 21.4759 14.8529 21.8447 13.9219 22.1025C12.9909 22.3604 12.0169 22.4928 11 22.5C9.99023 22.5 9.01628 22.3711 8.07812 22.1133C7.13997 21.8555 6.2627 21.4867 5.44629 21.0068C4.62988 20.527 3.88867 19.9541 3.22266 19.2881C2.55664 18.6221 1.98372 17.8773 1.50391 17.0537C1.02409 16.2301 0.655273 15.3564 0.397461 14.4326C0.139648 13.5088 0.00716146 12.5312 0 11.5C0 10.4902 0.128906 9.51628 0.386719 8.57812C0.644531 7.63997 1.01335 6.7627 1.49316 5.94629C1.97298 5.12988 2.5459 4.38867 3.21191 3.72266C3.87793 3.05664 4.62272 2.48372 5.44629 2.00391C6.26986 1.52409 7.14355 1.15527 8.06738 0.897461C8.99121 0.639648 9.96875 0.507161 11 0.5ZM11 21.125C11.8809 21.125 12.7295 21.0104 13.5459 20.7812C14.3623 20.5521 15.1286 20.2298 15.8447 19.8145C16.5609 19.3991 17.2126 18.8942 17.7998 18.2998C18.387 17.7054 18.8883 17.0573 19.3037 16.3555C19.7191 15.6536 20.0449 14.8874 20.2812 14.0566C20.5176 13.2259 20.6322 12.3737 20.625 11.5C20.625 10.6191 20.5104 9.77051 20.2812 8.9541C20.0521 8.1377 19.7298 7.37142 19.3145 6.65527C18.8991 5.93913 18.3942 5.28744 17.7998 4.7002C17.2054 4.11296 16.5573 3.61165 15.8555 3.19629C15.1536 2.78092 14.3874 2.45508 13.5566 2.21875C12.7259 1.98242 11.8737 1.86784 11 1.875C10.1191 1.875 9.27051 1.98958 8.4541 2.21875C7.6377 2.44792 6.87142 2.77018 6.15527 3.18555C5.43913 3.60091 4.78744 4.10579 4.2002 4.7002C3.61296 5.2946 3.11165 5.94271 2.69629 6.64453C2.28092 7.34635 1.95508 8.11263 1.71875 8.94336C1.48242 9.77409 1.36784 10.6263 1.375 11.5C1.375 12.3809 1.48958 13.2295 1.71875 14.0459C1.94792 14.8623 2.27018 15.6286 2.68555 16.3447C3.10091 17.0609 3.60579 17.7126 4.2002 18.2998C4.7946 18.887 5.44271 19.3883 6.14453 19.8037C6.84635 20.2191 7.61263 20.5449 8.44336 20.7812C9.27409 21.0176 10.1263 21.1322 11 21.125ZM17.4131 11.6719L17.9287 10.125H18.7344L17.8213 12.875H17.0156L16.5 11.3281L15.9844 12.875H15.1787L14.2656 10.125H15.0713L15.5869 11.6719L16.1025 10.125H16.8975L17.4131 11.6719ZM12.4287 10.125H13.2344L12.3213 12.875H11.5156L11 11.3281L10.4844 12.875H9.67871L8.76562 10.125H9.57129L10.0869 11.6719L10.6025 10.125H11.3975L11.9131 11.6719L12.4287 10.125ZM6.92871 10.125H7.73438L6.82129 12.875H6.01562L5.5 11.3281L4.98438 12.875H4.17871L3.26562 10.125H4.07129L4.58691 11.6719L5.10254 10.125H5.89746L6.41309 11.6719L6.92871 10.125Z" fill="#F9FD99"/>
</g>
<defs>
<clipPath id="clip0_158_7250">
<rect width="22" height="22" fill="white" transform="translate(0 0.5)"/>
</clipPath>
</defs>
</svg>