<svg xmlns="http://www.w3.org/2000/svg" width="22" height="23" viewBox="0 0 22 23" fill="none">
<path d="M16.8547 5.4475V4.36125C16.8547 4.17892 16.9271 4.00405 17.056 3.87512C17.1849 3.74619 17.3598 3.67375 17.5422 3.67375C17.7245 3.67375 17.8994 3.74619 18.0283 3.87512C18.1572 4.00405 18.2297 4.17892 18.2297 4.36125V7.56363C18.2297 7.74597 18.1572 7.92083 18.0283 8.04977C17.8994 8.1787 17.7245 8.25113 17.5422 8.25113H14.3412C14.1588 8.25113 13.9839 8.1787 13.855 8.04977C13.7261 7.92083 13.6537 7.74597 13.6537 7.56363C13.6537 7.38129 13.7261 7.20642 13.855 7.07749C13.9839 6.94856 14.1588 6.87613 14.3412 6.87613H16.339C15.5661 6.034 14.5953 5.39789 13.5147 5.02535C12.434 4.65282 11.2775 4.55562 10.1498 4.74256C9.02208 4.9295 7.95879 5.39467 7.05612 6.09598C6.15345 6.79728 5.43989 7.7126 4.98002 8.7591C4.52014 9.80559 4.32845 10.9502 4.4223 12.0895C4.51615 13.2287 4.89258 14.3265 5.51752 15.2837C6.14246 16.2408 6.9962 17.027 8.00147 17.5711C9.00674 18.1153 10.1318 18.4001 11.2749 18.4C12.1777 18.4 13.0717 18.2222 13.9059 17.8767C14.74 17.5312 15.4979 17.0248 16.1363 16.3864C16.7747 15.748 17.2811 14.9901 17.6266 14.156C17.9721 13.3218 18.1499 12.4278 18.1499 11.525H19.5249C19.5249 13.713 18.6557 15.8115 17.1085 17.3586C15.5614 18.9058 13.4629 19.775 11.2749 19.775C9.08687 19.775 6.98845 18.9058 5.44127 17.3586C3.8941 15.8115 3.0249 13.713 3.0249 11.525C3.02479 9.9232 3.49098 8.356 4.36659 7.01469C5.24219 5.67338 6.48933 4.61598 7.95578 3.97154C9.42224 3.32711 11.0446 3.12351 12.6248 3.38561C14.205 3.6477 15.6748 4.36415 16.8547 5.4475Z" fill="#F9FD99"/>
</svg>