<svg width="18" height="10" viewBox="0 0 18 10" fill="none" xmlns="http://www.w3.org/2000/svg">
<path d="M17.875 5.00302C17.8749 5.52761 17.6063 5.92006 17.3135 6.22666C17.0407 6.51221 16.6115 6.85045 16.1748 7.19443L15.1611 7.99326C14.4187 8.57814 13.7975 9.06813 13.2803 9.36826C12.7601 9.67009 12.1202 9.9147 11.457 9.62119C10.7758 9.31958 10.5531 8.66786 10.4629 8.08115C10.3803 7.54361 10.3763 6.83405 10.376 6.00009L1.125 6.00009C0.572715 6.00009 0.124999 5.55237 0.124999 5.00009C0.124999 4.44781 0.572715 4.00009 1.125 4.00009L10.376 4.00009C10.3763 3.1677 10.3804 2.45973 10.4629 1.92294C10.5531 1.33615 10.7757 0.683589 11.457 0.381929C12.1201 0.088542 12.7601 0.334029 13.2803 0.635835C13.7975 0.935984 14.4188 1.42599 15.1611 2.01084L16.1748 2.80869C16.6114 3.15257 17.0407 3.49096 17.3135 3.77646C17.6064 4.08311 17.875 4.47832 17.875 5.00302Z" fill="#0D0D0D"/>
</svg>
