<svg width="18" height="10" viewBox="0 0 18 10" fill="none" xmlns="http://www.w3.org/2000/svg">
<path d="M0.125001 4.99698C0.125084 4.47239 0.39365 4.07994 0.686524 3.77334C0.959313 3.48779 1.38846 3.14955 1.8252 2.80557L2.83887 2.00674C3.58127 1.42186 4.20251 0.931865 4.71973 0.631742C5.23994 0.329908 5.87983 0.0853012 6.54297 0.378813C7.22416 0.680419 7.44691 1.33214 7.53711 1.91885C7.61971 2.45639 7.62373 3.16595 7.62402 3.99991L16.875 3.99991C17.4273 3.99991 17.875 4.44762 17.875 4.99991C17.875 5.55219 17.4273 5.99991 16.875 5.99991L7.62402 5.99991C7.62372 6.8323 7.61957 7.54027 7.53711 8.07706C7.44694 8.66385 7.22428 9.31641 6.54297 9.61807C5.87989 9.91146 5.23989 9.66597 4.71973 9.36416C4.20252 9.06402 3.58121 8.57401 2.83887 7.98916L1.8252 7.19131C1.38859 6.84743 0.959325 6.50904 0.686524 6.22354C0.393604 5.91689 0.125001 5.52168 0.125001 4.99698Z" fill="white"/>
</svg>
