<svg width="30" height="31" viewBox="0 0 30 31" fill="none" xmlns="http://www.w3.org/2000/svg">
<path d="M15 28.9375C7.57867 28.9375 1.5625 22.9213 1.5625 15.5C1.5625 8.07867 7.57867 2.0625 15 2.0625C22.4213 2.0625 28.4375 8.07867 28.4375 15.5C28.4375 22.9213 22.4213 28.9375 15 28.9375Z" fill="url(#paint0_linear_443_9591)" fill-opacity="0.9"/>
<path fill-rule="evenodd" clip-rule="evenodd" d="M20.9214 12.5947C21.3879 12.0858 21.3536 11.2951 20.8447 10.8286C20.3358 10.3621 19.545 10.3965 19.0786 10.9054L13.0857 17.443L10.8839 15.2411C10.3957 14.753 9.60427 14.753 9.11612 15.2411C8.62796 15.7293 8.62796 16.5207 9.11612 17.0089L12.2411 20.1339C12.4822 20.375 12.8113 20.5071 13.1522 20.4997C13.493 20.4923 13.8161 20.346 14.0464 20.0947L20.9214 12.5947Z" fill="white"/>
<defs>
<linearGradient id="paint0_linear_443_9591" x1="15" y1="2.0625" x2="15" y2="28.9375" gradientUnits="userSpaceOnUse">
<stop stop-color="#FBA93F"/>
<stop offset="1" stop-color="#F04936"/>
</linearGradient>
</defs>
</svg>
