<svg width="60" height="60" viewBox="0 0 60 60" fill="none" xmlns="http://www.w3.org/2000/svg">
<rect width="60" height="60" rx="8" fill="#085C44"/>
<g clip-path="url(#clip0_100_2438)">
<g clip-path="url(#clip1_100_2438)">
<g clip-path="url(#clip2_100_2438)">
<path d="M29.987 16.5361C22.627 16.5361 16.667 22.5095 16.667 29.8694C16.667 37.2294 22.627 43.2028 29.987 43.2028C37.3603 43.2028 43.3337 37.2294 43.3337 29.8694C43.3337 22.5095 37.3603 16.5361 29.987 16.5361ZM30.0003 40.5361C24.107 40.5361 19.3337 35.7628 19.3337 29.8694C19.3337 23.9761 24.107 19.2028 30.0003 19.2028C35.8937 19.2028 40.667 23.9761 40.667 29.8694C40.667 35.7628 35.8937 40.5361 30.0003 40.5361ZM29.707 23.2028H29.627C29.0937 23.2028 28.667 23.6295 28.667 24.1628V30.4561C28.667 30.9228 28.907 31.3628 29.3203 31.6028L34.8537 34.9228C35.307 35.1894 35.8937 35.0561 36.1603 34.6028C36.2273 34.4948 36.2718 34.3745 36.2913 34.249C36.3108 34.1234 36.3048 33.9952 36.2737 33.8721C36.2426 33.7489 36.187 33.6333 36.1102 33.532C36.0335 33.4308 35.9372 33.346 35.827 33.2828L30.667 30.2161V24.1628C30.667 23.6295 30.2403 23.2028 29.707 23.2028Z" fill="#ECF86E"/>
</g>
</g>
</g>
<defs>
<clipPath id="clip0_100_2438">
<rect width="28" height="28" fill="white" transform="translate(16 15.8701)"/>
</clipPath>
<clipPath id="clip1_100_2438">
<rect width="28" height="28" fill="white" transform="translate(16 15.8701)"/>
</clipPath>
<clipPath id="clip2_100_2438">
<rect width="28" height="28" fill="white" transform="translate(16 15.8701)"/>
</clipPath>
</defs>
</svg>
