<svg width="60" height="60" viewBox="0 0 60 60" fill="none" xmlns="http://www.w3.org/2000/svg">
<rect width="60" height="60" rx="8" fill="#085C44"/>
<g clip-path="url(#clip0_100_2448)">
<g clip-path="url(#clip1_100_2448)">
<g clip-path="url(#clip2_100_2448)">
<mask id="mask0_100_2448" style="mask-type:luminance" maskUnits="userSpaceOnUse" x="18" y="17" width="24" height="25">
<path d="M42 17.8701H18V41.8701H42V17.8701Z" fill="white"/>
</mask>
<g mask="url(#mask0_100_2448)">
<path d="M35.6737 33.6109C35.4624 33.3984 35.2112 33.2298 34.9347 33.1148C34.6582 32.9997 34.3617 32.9405 34.0623 32.9405C33.7629 32.9405 33.4664 32.9997 33.1899 33.1148C32.9133 33.2298 32.6622 33.3984 32.4509 33.6109L31.3513 34.7124C30.1132 33.9253 28.9662 33.0029 27.9312 31.9623C26.8947 30.9234 25.9742 29.7745 25.1861 28.536L26.2857 27.4344C26.4978 27.2226 26.666 26.971 26.7809 26.694C26.8957 26.417 26.9548 26.12 26.9548 25.82C26.9548 25.52 26.8957 25.223 26.7809 24.946C26.666 24.6689 26.4978 24.4173 26.2857 24.2056L24.1396 22.0632C23.9312 21.85 23.6822 21.681 23.4074 21.5661C23.1325 21.4513 22.8374 21.393 22.5395 21.3947C22.2396 21.3939 21.9425 21.4526 21.6653 21.5673C21.3881 21.6821 21.1363 21.8506 20.9243 22.0632L19.893 23.0888C19.4014 23.6183 19.0346 24.2514 18.8193 24.9417C18.6041 25.6319 18.546 26.3617 18.6494 27.0773C18.892 29.9262 20.7575 33.3526 23.6315 36.2395C26.5056 39.1264 29.9636 40.9877 32.8073 41.2612C33.0194 41.2725 33.2321 41.2725 33.4443 41.2612C34.0564 41.2869 34.6675 41.19 35.2418 40.976C35.816 40.7621 36.3419 40.4355 36.7885 40.0153L37.8122 38.982C38.0244 38.7697 38.1926 38.5174 38.3072 38.2397C38.4217 37.962 38.4803 37.6643 38.4795 37.3639C38.4812 37.0655 38.423 36.7698 38.3084 36.4945C38.1937 36.2191 38.025 35.9696 37.8122 35.7609L35.6737 33.6109ZM36.743 37.9108L35.7117 38.9365C35.3303 39.2548 34.8852 39.4874 34.4063 39.6185C33.9275 39.7496 33.4261 39.7761 32.9362 39.6962C30.4716 39.4835 27.3322 37.7361 24.7387 35.1379C22.1452 32.5397 20.4011 29.4172 20.166 26.9482C20.0842 26.4573 20.1097 25.9546 20.2406 25.4745C20.3715 24.9945 20.6048 24.5486 20.9243 24.1676L21.9936 23.1344C22.0644 23.064 22.1484 23.0083 22.2408 22.9705C22.3332 22.9327 22.4322 22.9135 22.532 22.9141C22.6318 22.9135 22.7307 22.9327 22.8231 22.9705C22.9155 23.0083 22.9995 23.064 23.0704 23.1344L25.2164 25.3072C25.3577 25.4495 25.437 25.6421 25.437 25.8428C25.437 26.0435 25.3577 26.236 25.2164 26.3784L23.6998 27.8978C23.5811 28.0161 23.5048 28.1704 23.4829 28.3367C23.461 28.503 23.4946 28.6719 23.5785 28.8171C24.4865 30.3657 25.5901 31.7905 26.862 33.0563C28.1254 34.3305 29.5476 35.4362 31.0935 36.3458C31.2383 36.4299 31.4069 36.4636 31.5729 36.4416C31.7389 36.4196 31.8929 36.3432 32.011 36.2243L33.5277 34.7048C33.6698 34.5633 33.862 34.4839 34.0623 34.4839C34.2626 34.4839 34.4548 34.5633 34.5969 34.7048L36.743 36.8548C36.8133 36.9258 36.8689 37.01 36.9066 37.1026C36.9443 37.1951 36.9635 37.2943 36.9629 37.3942C36.9581 37.5883 36.8795 37.7731 36.743 37.9108ZM38.0625 21.8049C37.0086 20.7451 35.7557 19.9047 34.3761 19.3323C32.9965 18.7599 31.5175 18.4667 30.0242 18.4697C29.8231 18.4697 29.6302 18.5498 29.488 18.6923C29.3458 18.8347 29.2659 19.028 29.2659 19.2295C29.2659 19.431 29.3458 19.6242 29.488 19.7667C29.6302 19.9091 29.8231 19.9892 30.0242 19.9892C31.3259 19.9891 32.6146 20.2473 33.8162 20.7489C35.0177 21.2504 36.1082 21.9854 37.0247 22.9114C37.9412 23.8373 38.6656 24.936 39.1561 26.1439C39.6466 27.3518 39.8934 28.645 39.8824 29.949C39.8824 30.1505 39.9623 30.3438 40.1045 30.4862C40.2468 30.6287 40.4396 30.7087 40.6408 30.7087C40.8419 30.7087 41.0348 30.6287 41.177 30.4862C41.3192 30.3438 41.3991 30.1505 41.3991 29.949C41.4136 28.4371 41.1259 26.9377 40.5528 25.5389C39.9798 24.1402 39.133 22.8706 38.0625 21.8049Z" fill="#ECF86E"/>
<path d="M33.8351 26.0193C34.2512 26.4284 34.5804 26.9157 34.8033 27.4526C35.0262 27.9894 35.1383 28.5649 35.133 29.1452C35.133 29.3376 35.2102 29.522 35.3478 29.6581C35.4853 29.7941 35.6718 29.8705 35.8663 29.8705C36.0607 29.8705 36.2473 29.7941 36.3848 29.6581C36.5223 29.522 36.5995 29.3376 36.5995 29.1452C36.6092 28.3772 36.4647 27.6149 36.1742 26.9025C35.8838 26.1902 35.4532 25.542 34.9075 24.9955C34.3618 24.449 33.7118 24.0151 32.9953 23.719C32.2787 23.4229 31.5099 23.2704 30.7333 23.2705C30.5388 23.2705 30.3523 23.3469 30.2148 23.4829C30.0773 23.6189 30 23.8034 30 23.9958C30 24.1881 30.0773 24.3726 30.2148 24.5086C30.3523 24.6446 30.5388 24.7211 30.7333 24.7211C31.3112 24.7254 31.8825 24.8422 32.4147 25.065C32.947 25.2877 33.4296 25.612 33.8351 26.0193Z" fill="#ECF86E"/>
</g>
</g>
</g>
</g>
<defs>
<clipPath id="clip0_100_2448">
<rect width="24" height="24" fill="white" transform="translate(18 17.8701)"/>
</clipPath>
<clipPath id="clip1_100_2448">
<rect width="24" height="24" fill="white" transform="translate(18 17.8701)"/>
</clipPath>
<clipPath id="clip2_100_2448">
<rect width="24" height="24" fill="white" transform="translate(18 17.8701)"/>
</clipPath>
</defs>
</svg>
