<svg width="60" height="60" viewBox="0 0 60 60" fill="none" xmlns="http://www.w3.org/2000/svg">
<rect width="60" height="60" rx="8" fill="#085C44"/>
<g clip-path="url(#clip0_100_2458)">
<g clip-path="url(#clip1_100_2458)">
<path d="M19.3337 40.5355C18.6003 40.5355 17.9723 40.2741 17.4497 39.7515C16.927 39.2288 16.6661 38.6012 16.667 37.8688V21.8688C16.667 21.1355 16.9283 20.5075 17.451 19.9848C17.9737 19.4622 18.6012 19.2013 19.3337 19.2022H40.667C41.4003 19.2022 42.0283 19.4635 42.551 19.9862C43.0737 20.5088 43.3346 21.1364 43.3337 21.8688V37.8688C43.3337 38.6021 43.0723 39.2301 42.5497 39.7528C42.027 40.2755 41.3994 40.5364 40.667 40.5355H19.3337ZM40.667 24.5355L30.7003 30.7688C30.5892 30.8355 30.4723 30.8857 30.3497 30.9195C30.227 30.9532 30.1106 30.9697 30.0003 30.9688C29.8892 30.9688 29.7723 30.9524 29.6497 30.9195C29.527 30.8866 29.4106 30.8364 29.3003 30.7688L19.3337 24.5355V37.8688H40.667V24.5355ZM30.0003 28.5355L40.667 21.8688H19.3337L30.0003 28.5355ZM19.3337 24.8688V22.9022V22.9355V22.9195V24.8688Z" fill="#ECF86E"/>
</g>
</g>
<defs>
<clipPath id="clip0_100_2458">
<rect width="32" height="32" fill="white" transform="translate(14 13.8701)"/>
</clipPath>
<clipPath id="clip1_100_2458">
<rect width="32" height="32" fill="white" transform="translate(14 13.8701)"/>
</clipPath>
</defs>
</svg>
